# xmcd
# 
# Track frame offsets:
#     187
#     15942
#     37495
#     55050
#     70525
#     85875
#     98445
#     121417
#     141350
#     153715
# 
# Disc length: 2244
# 
# Revision: 10
# Processed by: cddbd v1.5.2PL0 Copyright (c) Steve Scherf et al.
# Submitted via: BonkEnc v1.0.6
# 
DISCID=7e08c20a
DTITLE=SCORPIONS - IN TRANCE
DYEAR=1975
DGENRE=Hard Rock
TTITLE0=Dark Lady
TTITLE1=In Trance
TTITLE2=Life's Like A River
TTITLE3=Top Of The Bill
TTITLE4=Living And Dying
TTITLE5=Robot Man
TTITLE6=Evening Wind
TTITLE7=Sun In My Hand
TTITLE8=Longing For Fire
TTITLE9=Night Lights
EXTD=YEAR: 1975
EXTT0=
EXTT1=
EXTT2=
EXTT3=
EXTT4=
EXTT5=
EXTT6=
EXTT7=
EXTT8=
EXTT9=
PLAYORDER=
